<svg width="24" height="24" viewBox="0 0 24 24" fill="none" xmlns="http://www.w3.org/2000/svg">
<path d="M12.008 3.00006C9.63018 2.99148 7.34614 3.93404 5.65727 5.62082C3.9684 7.3076 3.01272 9.60076 3.00002 11.9969C2.99647 13.8936 3.5965 15.7415 4.71201 17.2693L3.59202 20.6149L7.04801 19.5104C8.40121 20.4058 9.96884 20.9172 11.586 20.9908C13.2032 21.0643 14.8102 20.6974 16.238 19.9285C17.6657 19.1596 18.8615 18.0172 19.6995 16.6215C20.5375 15.2257 20.9867 13.6282 21 11.9969C20.9873 9.60356 20.0338 7.31284 18.3484 5.62652C16.663 3.94021 14.3831 2.99576 12.008 3.00006Z" fill="white" stroke="white" stroke-width="2" stroke-linecap="round" stroke-linejoin="round"/>
<path d="M16.864 14.2139C16.808 14.1171 16.648 14.0526 16.416 13.9398C16.184 13.8269 15.024 13.2545 14.816 13.1739C14.608 13.0933 14.44 13.053 14.288 13.2948C14.136 13.5367 13.888 13.8833 13.752 14.0365C13.616 14.1897 13.48 14.2139 13.24 14.0929C11.871 13.4918 10.7159 12.4852 9.928 11.2068C9.792 10.9731 9.928 10.8441 10.032 10.7312C10.424 10.3362 10.432 10.3926 10.528 10.1991C10.5623 10.1361 10.5803 10.0654 10.5803 9.99356C10.5803 9.92169 10.5623 9.85099 10.528 9.78798C10.408 9.65094 9.968 8.50618 9.768 8.0386C9.568 7.57102 8.56 7.48234 8.168 7.91767C4.008 12.3355 14.144 19.9054 16.736 15.2941C16.8425 15.141 16.91 14.9638 16.9323 14.7782C16.9546 14.5926 16.9312 14.4043 16.864 14.23" fill="#1CA171"/>
</svg>
